solid OpenSCAD_Model
  facet normal 0 0 -1
    outer loop
      vertex -7.18369 -5.96574 0
      vertex -7.96631 5.71145 0
      vertex -7.18369 -4.63426 0
    endloop
  endfacet
  facet normal 1 0 0
    outer loop
      vertex 8.1 -5.3 0
      vertex 8.1 5.3 0
      vertex 8.1 5.3 7
    endloop
  endfacet
  facet normal 0 0 1
    outer loop
      vertex -7.18369 -4.63426 7
      vertex -7.96631 -4.88855 7
      vertex 7.61631 -5.96574 7
    endloop
  endfacet
  facet normal 0 0 1
    outer loop
      vertex -7.18369 -4.63426 7
      vertex -7.96631 5.71145 7
      vertex -7.96631 -4.88855 7
    endloop
  endfacet
  facet normal 0 0 1
    outer loop
      vertex 7.61631 -5.96574 7
      vertex -7.96631 5.71145 7
      vertex -7.18369 -4.63426 7
    endloop
  endfacet
  facet normal 0 0 -1
    outer loop
      vertex -7.18369 5.96574 0
      vertex 8.1 -5.3 0
      vertex -7.18369 -4.63426 0
    endloop
  endfacet
  facet normal 0 0 -1
    outer loop
      vertex -7.18369 -5.96574 0
      vertex -7.96631 -5.71145 0
      vertex -7.96631 5.71145 0
    endloop
  endfacet
  facet normal -1 0 0
    outer loop
      vertex -7.96631 5.71145 0
      vertex -7.96631 -5.71145 0
      vertex -7.96631 -4.88855 7
    endloop
  endfacet
  facet normal 0 0 1
    outer loop
      vertex 7.61631 -5.96574 7
      vertex 8.1 -5.3 7
      vertex 8.1 5.3 7
    endloop
  endfacet
  facet normal 0 0 -1
    outer loop
      vertex -7.18369 -4.63426 0
      vertex -7.96631 5.71145 0
      vertex -7.18369 5.96574 0
    endloop
  endfacet
  facet normal -0.309018 0.951056 0
    outer loop
      vertex -7.96631 5.71145 0
      vertex -7.96631 5.71145 7
      vertex -7.18369 5.96574 0
    endloop
  endfacet
  facet normal -1 0 0
    outer loop
      vertex -7.96631 -4.88855 7
      vertex -7.96631 5.71145 7
      vertex -7.96631 5.71145 0
    endloop
  endfacet
  facet normal 0 -1 0
    outer loop
      vertex -7.18369 -5.96574 0
      vertex 7.61631 -5.96574 0
      vertex 7.61631 -5.96574 7
    endloop
  endfacet
  facet normal 0 0 -1
    outer loop
      vertex -7.18369 -4.63426 0
      vertex 8.1 -5.3 0
      vertex -7.18369 -5.96574 0
    endloop
  endfacet
  facet normal -0 -1 0
    outer loop
      vertex 7.61631 -5.96574 7
      vertex -7.18369 -5.96574 7
      vertex -7.18369 -5.96574 0
    endloop
  endfacet
  facet normal 0 0 1
    outer loop
      vertex -7.96631 -4.88855 7
      vertex -7.18369 -5.96574 7
      vertex 7.61631 -5.96574 7
    endloop
  endfacet
  facet normal -0.309018 -0.951056 -0
    outer loop
      vertex -7.18369 -5.96574 7
      vertex -7.96631 -5.71145 0
      vertex -7.18369 -5.96574 0
    endloop
  endfacet
  facet normal -1 0 0
    outer loop
      vertex -7.96631 -5.71145 0
      vertex -7.96631 -5.71145 7
      vertex -7.96631 -4.88855 7
    endloop
  endfacet
  facet normal -0.309018 0.951056 0
    outer loop
      vertex -7.96631 5.71145 7
      vertex -7.18369 5.96574 7
      vertex -7.18369 5.96574 0
    endloop
  endfacet
  facet normal 0 -0 1
    outer loop
      vertex 7.61631 -5.96574 7
      vertex 7.61631 5.96574 7
      vertex -7.96631 5.71145 7
    endloop
  endfacet
  facet normal 0 0 -1
    outer loop
      vertex 8.1 -5.3 0
      vertex 7.61631 -5.96574 0
      vertex -7.18369 -5.96574 0
    endloop
  endfacet
  facet normal 0.809016 -0.587787 0
    outer loop
      vertex 7.61631 -5.96574 7
      vertex 7.61631 -5.96574 0
      vertex 8.1 -5.3 0
    endloop
  endfacet
  facet normal -0.309018 -0.951056 0
    outer loop
      vertex -7.18369 -5.96574 7
      vertex -7.96631 -5.71145 7
      vertex -7.96631 -5.71145 0
    endloop
  endfacet
  facet normal 0 0 1
    outer loop
      vertex -7.96631 -4.88855 7
      vertex -7.96631 -5.71145 7
      vertex -7.18369 -5.96574 7
    endloop
  endfacet
  facet normal 0 0 -1
    outer loop
      vertex -7.18369 5.96574 0
      vertex 7.61631 5.96574 0
      vertex 8.1 -5.3 0
    endloop
  endfacet
  facet normal 0 0 1
    outer loop
      vertex 7.61631 -5.96574 7
      vertex 8.1 5.3 7
      vertex 7.61631 5.96574 7
    endloop
  endfacet
  facet normal 0 1 0
    outer loop
      vertex 7.61631 5.96574 7
      vertex 7.61631 5.96574 0
      vertex -7.18369 5.96574 0
    endloop
  endfacet
  facet normal 0.809016 0.587787 0
    outer loop
      vertex 8.1 5.3 7
      vertex 7.61631 5.96574 0
      vertex 7.61631 5.96574 7
    endloop
  endfacet
  facet normal 0 0 1
    outer loop
      vertex 7.61631 5.96574 7
      vertex -7.18369 5.96574 7
      vertex -7.96631 5.71145 7
    endloop
  endfacet
  facet normal 0 1 0
    outer loop
      vertex -7.18369 5.96574 0
      vertex -7.18369 5.96574 7
      vertex 7.61631 5.96574 7
    endloop
  endfacet
  facet normal 0.809016 -0.587787 0
    outer loop
      vertex 8.1 -5.3 0
      vertex 8.1 -5.3 7
      vertex 7.61631 -5.96574 7
    endloop
  endfacet
  facet normal 1 0 0
    outer loop
      vertex 8.1 5.3 7
      vertex 8.1 -5.3 7
      vertex 8.1 -5.3 0
    endloop
  endfacet
  facet normal 0 0 -1
    outer loop
      vertex 7.61631 5.96574 0
      vertex 8.1 5.3 0
      vertex 8.1 -5.3 0
    endloop
  endfacet
  facet normal 0.809016 0.587787 0
    outer loop
      vertex 8.1 5.3 7
      vertex 8.1 5.3 0
      vertex 7.61631 5.96574 0
    endloop
  endfacet
endsolid OpenSCAD_Model
